<svg xmlns="http://www.w3.org/2000/svg" viewBox="0 0 1500 454"><defs><style>.cls-1{fill:#fcfdfd;}.cls-2{fill:#096b64;}</style></defs><title>2876_logo_no-strapline_v_1</title><g id="Layer_2" data-name="Layer 2"><g id="Layer_1-2" data-name="Layer 1"><rect class="cls-1" width="1500" height="454"/><path class="cls-2" d="M137.21,37.55C177.28,13.28,224.65,3,271.18,3.36c8.63.51,17.3.35,25.93,1.15,45.12,2.54,89.31,13.56,132,28-1,8.41-2.83,16.73-4,25.13-.75,8.2-1.86,16.36-2.78,24.54-8.62-3.41-17.23-7-25.21-11.81a144.76,144.76,0,0,0-19.47-9.2c-10.37-4.07-20.7-8.38-31.54-11-8.57-2.35-17.36-3.76-26-5.68C307,41.25,293.6,40,280.23,39A172.82,172.82,0,0,0,217,45.43,146.4,146.4,0,0,0,167.4,72.74c-26.25,22.18-44.3,53.32-52.14,86.66-7.14,28.43-8.21,58.15-4.78,87.2,2.87,25.09,10,49.85,22.54,71.87a164.76,164.76,0,0,0,29.71,38.37c16.06,16.75,36,29.38,57.25,38.55,27.05,10.4,56.23,14.82,85.15,14.17a193.47,193.47,0,0,0,65.2-12.86,260,260,0,0,0,50.8-26.83c-.64,15.23-2.08,30.43-2.78,45.67-12.85,6.25-25.64,12.87-39.35,17-18.36,6.35-37.3,10.88-56.34,14.61-13.13,1.64-26.22,4-39.49,4.22-32.75.44-65.7-3.88-96.82-14.29a225.77,225.77,0,0,1-73.26-37.58c-24.78-18.92-44.32-44.32-57.71-72.4-15.19-30.82-21.73-65.44-21.56-99.66-.23-30,4.38-60.37,16.21-88.09,9.33-23,22.13-44.74,39.09-63a226.54,226.54,0,0,1,48.09-38.88Z"/><path class="cls-2" d="M467.17,5.45c99.21.06,198.41-.15,297.62.1q0,16.4,0,32.78-91.85,0-183.67,0A47.85,47.85,0,0,0,556.5,44c-8.94,5.17-14.45,14.62-17.12,24.35A94.25,94.25,0,0,0,537,90.54c-1.53,24.28-.91,48.62-1.07,73,.06,11.88-.14,23.78.1,35.67q81.43-.1,162.85,0c-.08,8.91,0,17.81,0,26.72q-81.39.15-162.78,0c-.35,28.18-.06,56.36-.15,84.56,0,20,1.65,40.86,11.33,58.79,8.83,17.45,24.39,30.87,42,39,7.71,3.69,16.17,5.35,24.52,6.93A162,162,0,0,0,646,417.68q59.4,0,118.8,0c0,11.59,0,23.2,0,34.8-29.63.16-59.25,0-88.87.07-19.94-.19-39.91.51-59.82-.85-24.8-1.92-49.63-7.22-72-18.31-16.2-8.19-31.15-19.2-42.76-33.24a136.16,136.16,0,0,1-25.73-46.64c-6.85-20.24-8.74-41.81-8.42-63.08q0-142.47,0-285Z"/><path class="cls-2" d="M954.92,6.65c34.26-3,69.48-.62,102.09,10.9,22.53,8.17,43.41,21.47,59.21,39.59a136.38,136.38,0,0,1,24.07,38.31c8.07,21.68,11.56,44.92,11.35,68q0,143.49,0,287c-23,.21-45.93.06-68.9.08q0-142,0-284c-.14-12.83.39-25.67-.63-38.46-1.43-16.25-5.69-32.54-14.57-46.38C1059.62,68.48,1047.65,58,1034,51c-11.7-6.22-25-8.57-38-9.91-18.07-1.45-36.46-.92-54.15,3.32a124.79,124.79,0,0,0-34.1,17.89c-14.18,12.08-23.82,29.14-28.1,47.19-2.77,11.1-3.52,22.58-3.66,34q0,153.53,0,307.07c-23-.05-45.92.09-68.89-.08q0-142.53,0-285.05c-.09-23.18,2.61-46.72,11.28-68.37A134.17,134.17,0,0,1,883.2,25.74c22.22-11.37,47-17,71.72-19.09Z"/><path class="cls-2" d="M1202.47,5.46q34.37,0,68.75,0,0,155.52,0,311c.08,19.39,2.21,39.5,11.86,56.7,9.16,18.46,25.69,32.62,44.64,40.35,17.57,6.4,36.49,8.36,55.1,8.15q58.49,0,117,0v30.87q-61-.06-122,0c-30.48.21-61.51-3.38-89.83-15.21a141.41,141.41,0,0,1-44.51-29.51,139.9,139.9,0,0,1-28.58-43.32c-9.13-21.77-12.59-45.58-12.43-69.08V5.46Z"/></g></g></svg>