<svg version="1.1" id="icon-logo" xmlns="http://www.w3.org/2000/svg" x="0" y="0" viewBox="0 0 430.001 117.313" xml:space="preserve"><style>.st0{fill:currentColor}</style><g id="Group_908"> <path id="Path_511" class="st0 orion-o" d="M54.768 99.069C25.032 99.069 0 79.953 0 51.583 0 21.391 23.212 0 55.527 0c28.673 0 53.252 19.571 53.252 46.88 0 30.647-24.578 52.189-54.011 52.189M51.582 3.792c-26.7 0-37.322 24.882-37.322 43.087 0 28.37 19.268 48.4 43.694 48.4 24.73 0 36.563-21.846 36.563-43.389 0-28.219-17.9-48.094-42.935-48.094"></path> <path id="Path_512" class="st0 orion-not-o" d="M205.953 25.527h30.045v2.908c-7.215 0-9.262 1.616-9.262 9.262v41.89c0 8.078 1.508 10.23 9.262 10.015v2.908h-30.045v-2.908c8.508.215 8.83-3.123 8.83-9.262V36.51c0-5.815-1.4-8.185-8.83-8.077v-2.906z"></path> <path id="Path_513" class="st0 orion-not-o" d="M292.981 23.804c23.26 0 39.3 13.893 39.3 34.03 0 19.383-15.506 36.4-39.737 36.4-22.506 0-38.876-14.108-38.876-33.384 0-21.537 16.478-37.045 39.308-37.045m1.291 66.983c14.969 0 24.984-12.169 24.984-30.261 0-19.492-11.307-33.277-27.138-33.277-15.508 0-25.415 11.847-25.415 30.692 0 21.646 13.892 32.845 27.568 32.845"></path> <path id="Path_514" class="st0 orion-not-o" d="M362.048 37.697v41.351c0 8.4 1.076 11.093 10.768 10.554v2.908h-25.738v-2.908c7.754.215 9.046-2.261 9.046-9.262V31.881c-2.585-2.261-4.954-3.123-9.046-3.446v-2.908h19.492l48.03 50.722V37.697c0-8.078-1.292-9.37-10.661-9.262v-2.908h26.062v2.908c-7.217 0-9.477 1.293-9.477 9.477v55.244h-5.817l-52.659-55.459z"></path> <path id="Path_515" class="st0 orion-not-o" d="M149.393 64.727a57.024 57.024 0 01-9.584 0v14.214c0 9.261 1.184 10.986 10.984 10.661v2.908h-32.951v-2.908c9.047.324 10.016-2.153 10.016-9.262V37.158c0-7-1.184-8.723-10.016-8.723v-2.908c2.478 0 7.969-.431 15.4-.754 5.708-.214 10.984-.214 13.138-.214 21.753 0 29.184 9.477 29.184 19.276 0 7.968-4.523 13.785-13.569 17.553m-22.184.324c.754.108 2.8.323 3.446.323 14.322-.647 19.276-6.139 19.276-17.123 0-10.877-5.815-17.338-17.553-17.338-1.732.009-3.46.153-5.169.431v33.707z"></path> <path id="Path_516" class="st0 orion-not-o" d="M162.212 60.882c26.262 32.187 44.741 43.177 52.471 46.537a95.317 95.317 0 0033.075 7.209c.821.013 1.638.122 2.434.323a.973.973 0 01.524 1.332c-.269.618-.779.947-1.909 1.008a128.74 128.74 0 01-53.644-10.637c-17.151-7.456-28.116-21.212-45.293-42.445"></path> <path id="Path_517" class="st0 orion-not-o" d="M29.408 28.213h1.824l2.821 5.535h.021v-5.535h1.422v7.4h-1.814l-2.832-5.536h-.021v5.536h-1.421v-7.4z"></path> <path id="Path_518" class="st0 orion-not-o" d="M41.8 28.213h1.676l2.906 7.4h-1.644l-.637-1.7h-3l-.647 1.7h-1.539l2.885-7.4zm.815 1.485h-.02l-1.071 3.05h2.164l-1.073-3.05z"></path> <path id="Path_519" class="st0 orion-not-o" d="M50.378 29.379h-2.121v-1.166h5.727v1.167h-2.122v6.235h-1.484v-6.236z"></path> <path id="Path_520" class="st0 orion-not-o" d="M57.415 28.213H58.9v4.274c0 1.262.4 2.09 1.538 2.09s1.542-.829 1.542-2.09v-4.274h1.48v4.735c0 1.983-1.124 2.8-3.022 2.8s-3.022-.816-3.022-2.8l-.001-4.735z"></path> <path id="Path_521" class="st0 orion-not-o" d="M67.537 28.213h1.6c1.591 0 3.489-.053 3.489 2a1.693 1.693 0 01-1.527 1.718v.022c.4.031.637.435.785.763l1.188 2.9h-1.653l-.887-2.313c-.212-.551-.4-.763-1.029-.763h-.481v3.075h-1.485v-7.402zm1.485 3.16h.488c.732 0 1.569-.106 1.569-1.029 0-.89-.827-.965-1.569-.965h-.488v1.994z"></path> <path id="Path_522" class="st0 orion-not-o" d="M76.684 28.213h4.369v1.167h-2.885v1.824h2.641v1.167h-2.641v2.077h2.906v1.167h-4.39v-7.402z"></path> <path id="Path_523" class="st0 orion-not-o" d="M44.125 45.633h1.676l2.906 7.4h-1.644l-.637-1.7h-3l-.647 1.7H41.24l2.885-7.4zm.817 1.485h-.021l-1.072 3.054h2.164l-1.071-3.054z"></path> <path id="Path_524" class="st0 orion-not-o" d="M52.126 45.633h1.824l2.821 5.536h.021v-5.536h1.422v7.4h-1.815l-2.832-5.536h-.021v5.536h-1.42v-7.4z"></path> <path id="Path_525" class="st0 orion-not-o" d="M62.397 45.633h2.024c2.271 0 4.275.763 4.275 3.7 0 2.937-2 3.7-4.275 3.7h-2.024v-7.4zm1.484 6.235h.828a2.536 2.536 0 000-5.069h-.828v5.069z"></path> <path id="Path_526" class="st0 orion-not-o" d="M31.598 70.342a7.517 7.517 0 01-1.686.233c-2.4 0-4.062-1.2-4.062-3.7 0-2.535 1.548-3.956 4.062-3.956a4.879 4.879 0 011.675.308l-.106 1.251a3.051 3.051 0 00-1.6-.393 2.473 2.473 0 00-2.482 2.683 2.44 2.44 0 002.513 2.646 4.132 4.132 0 001.622-.308l.064 1.236z"></path> <path id="Path_527" class="st0 orion-not-o" d="M35.178 63.046h1.485v4.275c0 1.261.4 2.089 1.538 2.089s1.538-.828 1.538-2.089v-4.275h1.485v4.727c0 1.983-1.124 2.8-3.022 2.8s-3.022-.817-3.022-2.8l-.002-4.727z"></path> <path id="Path_528" class="st0 orion-not-o" d="M45.425 63.046h1.485v6.235h2.874v1.167h-4.359v-7.402z"></path> <path id="Path_529" class="st0 orion-not-o" d="M53.642 64.212h-2.121v-1.166h5.727v1.167h-2.121v6.235h-1.485v-6.236z"></path> <path id="Path_530" class="st0 orion-not-o" d="M60.679 63.046h1.485v4.275c0 1.261.4 2.089 1.538 2.089s1.538-.828 1.538-2.089v-4.275h1.485v4.727c0 1.983-1.124 2.8-3.023 2.8s-3.022-.817-3.022-2.8l-.001-4.727z"></path> <path id="Path_531" class="st0 orion-not-o" d="M70.803 63.045h1.6c1.591 0 3.489-.052 3.489 2a1.694 1.694 0 01-1.527 1.718v.021c.4.032.636.435.784.763l1.188 2.9h-1.652l-.892-2.312c-.211-.552-.4-.763-1.029-.763h-.479v3.075h-1.482v-7.402zm1.482 3.161h.487c.733 0 1.57-.107 1.57-1.029 0-.89-.827-.965-1.57-.965h-.487v1.994z"></path> <path id="Path_532" class="st0 orion-not-o" d="M79.95 63.046h4.369v1.167h-2.885v1.824h2.641v1.166h-2.641v2.078h2.906v1.167h-4.39v-7.402z"></path> </g> </svg>