<?xml version="1.0" standalone="no"?>
<!DOCTYPE svg PUBLIC "-//W3C//DTD SVG 20010904//EN"
 "http://www.w3.org/TR/2001/REC-SVG-20010904/DTD/svg10.dtd">
<svg version="1.0" xmlns="http://www.w3.org/2000/svg"
 width="300.000000pt" height="300.000000pt" viewBox="0 0 300.000000 300.000000"
 preserveAspectRatio="xMidYMid meet">
<metadata>
Created by potrace 1.14, written by Peter Selinger 2001-2017
</metadata>
<g transform="translate(0.000000,300.000000) scale(0.100000,-0.100000)"
fill="#000000" stroke="none">
<path d="M0 1500 l0 -1500 1500 0 1500 0 0 1500 0 1500 -1500 0 -1500 0 0
-1500z m2920 0 l0 -1420 -1420 0 -1420 0 0 1420 0 1420 1420 0 1420 0 0 -1420z"/>
<path d="M125 2868 c-3 -7 -4 -627 -3 -1378 l3 -1365 1375 0 1375 0 0 1375 0
1375 -1373 3 c-1093 2 -1374 0 -1377 -10z m2701 -39 c6 -10 6 -2648 0 -2657
-2 -4 -599 -7 -1326 -6 -1130 0 -1323 3 -1331 15 -5 8 -9 568 -9 1326 0 1206
1 1313 16 1321 21 12 2643 12 2650 1z"/>
<path d="M280 2270 l0 -450 99 0 100 0 -6 88 c-18 297 138 595 407 775 l55 37
-328 0 -327 0 0 -450z"/>
<path d="M1820 2615 l0 -105 -57 29 c-32 16 -96 41 -143 57 -77 25 -99 28
-230 28 -127 1 -154 -2 -219 -23 -150 -49 -279 -160 -353 -302 -53 -103 -73
-192 -72 -324 0 -129 18 -206 71 -315 45 -93 149 -201 240 -248 169 -89 388
-96 586 -20 l77 29 0 93 c0 52 -7 133 -15 181 -9 48 -14 89 -12 91 2 2 98 4
213 5 178 0 220 -3 286 -20 103 -27 165 -60 237 -127 84 -77 125 -161 130
-265 7 -169 -72 -298 -259 -420 l-24 -16 49 -79 c68 -109 161 -237 274 -378
53 -66 101 -127 108 -135 10 -13 12 237 13 1177 l0 1192 -450 0 -450 0 0 -105z"/>
<path d="M505 1663 c-11 -25 -28 -1214 -18 -1223 21 -20 334 38 492 91 47 16
88 29 92 29 4 0 -16 -53 -45 -118 -29 -64 -56 -127 -60 -140 l-7 -22 140 0
140 0 6 53 c3 28 5 218 3 422 l-3 369 -45 8 c-248 43 -409 124 -527 265 -63
76 -88 118 -128 210 -25 57 -34 70 -40 56z"/>
<path d="M1950 1330 c0 -284 2 -330 15 -330 32 0 177 60 231 96 182 121 172
385 -19 497 -47 28 -166 67 -203 67 l-24 0 0 -330z"/>
<path d="M1642 1173 c-40 -12 -100 -26 -135 -30 l-62 -8 -3 -428 -2 -427 124
0 124 0 6 33 c21 123 26 236 24 542 l-3 341 -73 -23z"/>
<path d="M1952 695 c4 -211 8 -286 22 -343 l18 -72 276 0 277 0 -76 69 c-96
88 -212 222 -374 431 -70 91 -131 170 -137 175 -6 7 -8 -82 -6 -260z"/>
</g>
</svg>
